<svg width="1200" height="800" viewBox="0 0 1200 800" xmlns="http://www.w3.org/2000/svg">
  <defs>
    <linearGradient id="grad1" x1="0%" y1="0%" x2="100%" y2="100%">
      <stop offset="0%" style="stop-color:#3B82F6;stop-opacity:0.1" />
      <stop offset="50%" style="stop-color:#8B5CF6;stop-opacity:0.1" />
      <stop offset="100%" style="stop-color:#EC4899;stop-opacity:0.1" />
    </linearGradient>
    <linearGradient id="grad2" x1="100%" y1="0%" x2="0%" y2="100%">
      <stop offset="0%" style="stop-color:#10B981;stop-opacity:0.1" />
      <stop offset="50%" style="stop-color:#F59E0B;stop-opacity:0.1" />
      <stop offset="100%" style="stop-color:#EF4444;stop-opacity:0.1" />
    </linearGradient>
    <radialGradient id="radial1" cx="50%" cy="50%" r="50%">
      <stop offset="0%" style="stop-color:#6366F1;stop-opacity:0.05" />
      <stop offset="100%" style="stop-color:#6366F1;stop-opacity:0" />
    </radialGradient>
  </defs>
  
  <!-- Основной градиентный фон -->
  <rect width="1200" height="800" fill="url(#grad1)"/>
  
  <!-- Дополнительный градиент -->
  <rect width="1200" height="800" fill="url(#grad2)"/>
  
  <!-- Большие круги -->
  <circle cx="200" cy="150" r="120" fill="url(#radial1)" opacity="0.3"/>
  <circle cx="1000" cy="200" r="100" fill="url(#radial1)" opacity="0.2"/>
  <circle cx="150" cy="600" r="80" fill="url(#radial1)" opacity="0.25"/>
  <circle cx="950" cy="650" r="90" fill="url(#radial1)" opacity="0.2"/>
  
  <!-- Геометрические фигуры -->
  <rect x="800" y="100" width="60" height="60" transform="rotate(45 830 130)" fill="#3B82F6" opacity="0.08"/>
  <rect x="300" y="500" width="80" height="80" transform="rotate(30 340 540)" fill="#8B5CF6" opacity="0.08"/>
  <rect x="100" y="300" width="50" height="50" transform="rotate(15 125 325)" fill="#EC4899" opacity="0.08"/>
  
  <!-- Точки -->
  <circle cx="400" cy="250" r="3" fill="#3B82F6" opacity="0.2"/>
  <circle cx="600" cy="180" r="2" fill="#8B5CF6" opacity="0.2"/>
  <circle cx="800" cy="400" r="2.5" fill="#EC4899" opacity="0.2"/>
  <circle cx="500" cy="500" r="2" fill="#10B981" opacity="0.2"/>
  <circle cx="700" cy="600" r="3" fill="#F59E0B" opacity="0.2"/>
  <circle cx="900" cy="350" r="2" fill="#EF4444" opacity="0.2"/>
  
  <!-- Линии -->
  <line x1="0" y1="200" x2="200" y2="200" stroke="#3B82F6" stroke-width="1" opacity="0.1"/>
  <line x1="1000" y1="400" x2="1200" y2="400" stroke="#8B5CF6" stroke-width="1" opacity="0.1"/>
  <line x1="0" y1="600" x2="150" y2="600" stroke="#EC4899" stroke-width="1" opacity="0.1"/>
  
  <!-- Сетка -->
  <g opacity="0.05">
    <line x1="0" y1="100" x2="1200" y2="100" stroke="#6B7280" stroke-width="0.5"/>
    <line x1="0" y1="200" x2="1200" y2="200" stroke="#6B7280" stroke-width="0.5"/>
    <line x1="0" y1="300" x2="1200" y2="300" stroke="#6B7280" stroke-width="0.5"/>
    <line x1="0" y1="400" x2="1200" y2="400" stroke="#6B7280" stroke-width="0.5"/>
    <line x1="0" y1="500" x2="1200" y2="500" stroke="#6B7280" stroke-width="0.5"/>
    <line x1="0" y1="600" x2="1200" y2="600" stroke="#6B7280" stroke-width="0.5"/>
    <line x1="0" y1="700" x2="1200" y2="700" stroke="#6B7280" stroke-width="0.5"/>
    
    <line x1="100" y1="0" x2="100" y2="800" stroke="#6B7280" stroke-width="0.5"/>
    <line x1="200" y1="0" x2="200" y2="800" stroke="#6B7280" stroke-width="0.5"/>
    <line x1="300" y1="0" x2="300" y2="800" stroke="#6B7280" stroke-width="0.5"/>
    <line x1="400" y1="0" x2="400" y2="800" stroke="#6B7280" stroke-width="0.5"/>
    <line x1="500" y1="0" x2="500" y2="800" stroke="#6B7280" stroke-width="0.5"/>
    <line x1="600" y1="0" x2="600" y2="800" stroke="#6B7280" stroke-width="0.5"/>
    <line x1="700" y1="0" x2="700" y2="800" stroke="#6B7280" stroke-width="0.5"/>
    <line x1="800" y1="0" x2="800" y2="800" stroke="#6B7280" stroke-width="0.5"/>
    <line x1="900" y1="0" x2="900" y2="800" stroke="#6B7280" stroke-width="0.5"/>
    <line x1="1000" y1="0" x2="1000" y2="800" stroke="#6B7280" stroke-width="0.5"/>
    <line x1="1100" y1="0" x2="1100" y2="800" stroke="#6B7280" stroke-width="0.5"/>
  </g>
</svg>
